<svg height="716" width="800" xmlns="http://www.w3.org/2000/svg">
 <!-- Created with Image Occlusion Enhanced -->
 <g>
  <title>Labels</title>
 </g>
 <g>
  <title>Masks</title>
  <rect fill="#FFEBA2" height="40.22988" id="a38c3d7e14f24a7bbc37e0b41afed960-oa-1" stroke="#2D2D2D" width="141.37931" x="21.83908" y="182.85059"/>
  <rect fill="#FFEBA2" height="40.22988" id="a38c3d7e14f24a7bbc37e0b41afed960-oa-2" stroke="#2D2D2D" width="141.37931" x="214.36784" y="182.85059"/>
  <rect fill="#FFEBA2" height="40.22988" id="a38c3d7e14f24a7bbc37e0b41afed960-oa-3" stroke="#2D2D2D" transform="translate(259.77 -156.322)" width="141.37931" x="332.75864" y="341.47128"/>
  <rect fill="#FFEBA2" height="40.22988" id="a38c3d7e14f24a7bbc37e0b41afed960-oa-4" stroke="#2D2D2D" transform="translate(65.5172 -157.471)" width="141.37931" x="332.75864" y="341.47128"/>
  <rect fill="#FFEBA2" height="40.22988" id="a38c3d7e14f24a7bbc37e0b41afed960-oa-5" stroke="#2D2D2D" width="141.37931" x="429.31033" y="394.34488"/>
  <rect fill="#FFEBA2" height="40.22988" id="a38c3d7e14f24a7bbc37e0b41afed960-oa-6" stroke="#2D2D2D" transform="translate(286.207 57.4713)" width="141.37931" x="332.75864" y="341.47128"/>
  <rect fill="#FFEBA2" height="40.22988" id="a38c3d7e14f24a7bbc37e0b41afed960-oa-7" stroke="#2D2D2D" transform="translate(-310.345 49.4253)" width="141.37931" x="332.75864" y="341.47128"/>
  <rect fill="#FFEBA2" height="40.22988" id="a38c3d7e14f24a7bbc37e0b41afed960-oa-8" stroke="#2D2D2D" transform="translate(-324.138 320.69)" width="141.37931" x="332.75864" y="341.47128"/>
  <rect fill="#FFEBA2" height="40.22988" id="a38c3d7e14f24a7bbc37e0b41afed960-oa-9" stroke="#2D2D2D" transform="translate(-114.943 322.988)" width="141.37931" x="332.75864" y="341.47128"/>
  <rect fill="#FFEBA2" height="40.22988" id="a38c3d7e14f24a7bbc37e0b41afed960-oa-10" stroke="#2D2D2D" transform="translate(95.4023 319.54)" width="141.37931" x="332.75864" y="341.47128"/>
  <rect fill="#FFEBA2" height="40.22988" id="a38c3d7e14f24a7bbc37e0b41afed960-oa-11" stroke="#2D2D2D" transform="translate(-98.8506 57.4713)" width="141.37931" x="332.75864" y="341.47128"/>
  <rect fill="#FFEBA2" height="40.22988" id="a38c3d7e14f24a7bbc37e0b41afed960-oa-12" stroke="#2D2D2D" width="141.37931" x="598.27588" y="665.60921"/>
 </g>
</svg>